<?xml version="1.0" encoding="UTF-8"?>
<!DOCTYPE svg PUBLIC "-//W3C//DTD SVG 1.1//EN" "http://www.w3.org/Graphics/SVG/1.1/DTD/svg11.dtd">
<!-- Creator: CorelDRAW -->
<svg xmlns="http://www.w3.org/2000/svg" xml:space="preserve" width="42.3332mm" height="42.3332mm" version="1.1" style="shape-rendering:geometricPrecision; text-rendering:geometricPrecision; image-rendering:optimizeQuality; fill-rule:evenodd; clip-rule:evenodd"
viewBox="0 0 4233.32 4233.32"
 xmlns:xlink="http://www.w3.org/1999/xlink"
 xmlns:xodm="http://www.corel.com/coreldraw/odm/2003">
 <defs>
  <style type="text/css">
   <![CDATA[
    .fil0 {fill:none}
    .fil1 {fill:#373435}
   ]]>
  </style>
 </defs>
 <g id="Camada_x0020_1">
  <metadata id="CorelCorpID_0Corel-Layer"/>
  <rect class="fil0" x="-0.02" y="-0.01" width="4233.33" height="4233.33"/>
  <polygon class="fil1" points="849.79,1781.03 793.23,2340.26 1002.87,2272.43 1031.82,1976.35 936.8,1990 1182.24,1910.82 1230.46,1730.8 1049.63,1784.33 1059.01,1700.62 "/>
  <polygon class="fil1" points="811.78,1570.97 799.62,1740.02 1322.57,1612.32 1372.43,1405.57 "/>
  <path class="fil1" d="M1509.95 1353.91l-230.87 803.3 189.75 -60.09 31.63 -142.32 112.27 -26.88 12.64 128.08 178.71 -52.18 -64.84 -706.85 -229.29 56.94zm75.13 247.97l-59.46 206.9 79.08 -22 -19.62 -184.9z"/>
  <path class="fil1" d="M2305.78 1145.49c-52.15,14.07 -486.72,85.77 -341.99,303.72 195.71,346.27 -103.96,318.66 -102.71,329.08 6.43,67.37 12.88,134.76 19.32,202.14 455.24,-138.28 405.73,-316.95 327.81,-420.39 0,0 -137.39,-163.19 80.01,-240.53l17.56 -174.02z"/>
  <polygon class="fil1" points="2397.19,1122.64 2379.61,1303.7 2511.45,1277.33 2451.68,1822.23 2634.49,1781.81 2694.26,1240.41 2826.09,1215.8 2848.94,1033 "/>
  <polygon class="fil1" points="2916.39,1033.37 3035.57,1423.15 3009.79,1693.71 3215.95,1642.16 3235.28,1387.69 3451.09,907.77 3254.61,956.07 3161.2,1181.56 3106.42,981.85 "/>
  <polygon class="fil1" points="3092.78,2008.87 3152.43,2203.93 3139.53,2339.34 3242.7,2313.54 3252.38,2186.19 3360.38,1946.01 3262.05,1970.18 3215.3,2083.03 3187.89,1983.08 "/>
  <path class="fil1" d="M1241.51 2546.62c-8.08,114.55 -16.17,229.1 -24.25,343.65 384.4,-143.15 278.96,-401.6 278.96,-401.6 0,0 -49.96,-124.61 -249.32,-40.43 -420.15,173.92 -776.76,360.24 -1000.05,503.16 331.56,-134.93 630.56,-291.56 994.66,-404.78zm94.09 -21.36l-6.36 226.01c127.96,-118.4 76.39,-198.63 76.39,-198.63 0,0 -30.07,-35.45 -70.03,-27.38z"/>
  <polygon class="fil1" points="1526.55,2382.18 1523.62,2470.61 1551.62,2461.77 1544.25,2788.96 1747.64,2712.32 1746.17,2612.1 1632.68,2656.32 1629.48,2596.67 1735.01,2559.29 1740.14,2469.88 1636.08,2506.53 1639,2439.1 1754.8,2398.8 1761.39,2309.38 "/>
  <polygon class="fil1" points="2532.33,2134.76 2529.61,2216.71 2555.56,2208.51 2526.55,2483.99 2737.01,2427.76 2735.85,2347.83 2630.67,2388.81 2627.71,2333.54 2725.51,2298.88 2730.25,2216.03 2633.83,2249.99 2636.54,2187.5 2743.85,2150.16 2749.96,2067.3 "/>
  <polygon class="fil1" points="1808.85,2294.68 1796.36,2698.35 1971.15,2642.17 1971.15,2540.21 1885.84,2575.58 1908.72,2267.63 "/>
  <polygon class="fil1" points="2029.4,2238.49 2023.17,2319.65 2060.63,2313.4 2056.45,2527.73 2015.39,2541.5 2013.89,2631.56 2189.18,2576.11 2186.2,2490.89 2153.45,2503.92 2164.79,2292.95 2198.88,2282.09 2200.95,2193.22 "/>
  <polygon class="fil1" points="2233.22,2192.32 2280.31,2553.1 2382.08,2519.68 2493.74,2136.11 2398.03,2158.14 2338.79,2378.4 2311.44,2171.04 "/>
  <path class="fil1" d="M2793.62 2058.32l-4.16 88.35 29.09 -9.36 -19.75 275.41 89.38 -28.06c3.12,-25.29 6.25,-50.58 9.36,-75.87 0,0 49.55,21.48 69.63,60.28l94.58 -23.91 -86.26 -102.88c168.73,-165.6 43.46,-222.77 43.46,-222.77 -27.02,-12.48 -151.89,24.96 -225.33,38.81zm114.31 53.01l-11.43 92.49c99.09,-45.38 72.76,-92.49 72.76,-92.49 -34.99,-18.71 -61.33,0 -61.33,0z"/>
  <path class="fil1" d="M3430.74 1862.68c57.31,-64.25 40.42,-131.36 40.42,-131.36 -1785.11,274.49 -2869.65,899.28 -2869.65,899.28 1090.38,-502.93 2638.91,-774.67 2829.23,-767.92z"/>
 </g>
</svg>
